<svg width="64" height="64" viewBox="0 0 64 64" fill="none" xmlns="http://www.w3.org/2000/svg">
<g clip-path="url(#clip0_2355_2079)">
<path fill-rule="evenodd" clip-rule="evenodd" d="M32 0C49.6731 0 64 14.3269 64 32C64 49.6731 49.6731 64 32 64C14.3269 64 0 49.6731 0 32C0 14.3269 14.3269 0 32 0ZM33.9165 13.0349C36.0924 13.3064 37.8507 13.8305 39.78 14.7716C41.6775 15.7 42.8919 16.5778 44.4985 18.1756C46.0039 19.6851 46.8388 20.8283 47.7243 22.6029C48.9578 25.0787 49.6599 28.0217 49.78 31.2616C49.8243 32.3668 49.7927 32.6131 49.5396 32.9289C49.0589 33.5416 48.0026 33.4404 47.6421 32.752C47.5282 32.5246 47.4966 32.329 47.4586 31.4447C47.3953 30.0869 47.3006 29.209 47.1108 28.1606C46.3645 24.0492 44.3909 20.7651 41.241 18.4093C38.6161 16.4389 35.9026 15.4789 32.348 15.2705C31.1462 15.201 30.9374 15.1569 30.6654 14.9485C30.1593 14.5506 30.1341 13.6159 30.6211 13.1801C30.9184 12.9085 31.1271 12.8706 32.1581 12.9022C32.6958 12.9211 33.4864 12.9843 33.9165 13.0349ZM19.4573 13.7169C19.6787 13.7927 20.0202 13.9695 20.2163 14.0959C21.418 14.8916 24.764 19.1672 25.8583 21.3019C26.4844 22.5208 26.6932 23.4239 26.4972 24.0934C26.2947 24.8133 25.9596 25.1923 24.4605 26.3986C23.8596 26.8848 23.2966 27.3838 23.2081 27.5164C22.9804 27.8449 22.7969 28.489 22.7969 28.9437C22.8033 29.9984 23.4864 31.9121 24.3846 33.3836C25.0803 34.5268 26.3263 35.9919 27.5597 37.1161C29.0082 38.4425 30.2858 39.3455 31.728 40.0592C33.5812 40.9812 34.7135 41.2149 35.5421 40.8297C35.7508 40.7349 35.9722 40.6086 36.0418 40.5518C36.105 40.495 36.5921 39.9013 37.1234 39.2445C38.148 37.9561 38.3821 37.7477 39.0842 37.5077C39.9761 37.2046 40.8869 37.2866 41.804 37.754C42.4998 38.114 44.0178 39.055 44.9982 39.7371C46.2885 40.6402 49.0463 42.8886 49.4195 43.3371C50.0773 44.1454 50.1912 45.1811 49.7483 46.3243C49.2803 47.5305 47.4586 49.7915 46.1873 50.7578C45.0361 51.6294 44.2202 51.964 43.1449 52.0146C42.2594 52.0588 41.8926 51.983 40.7604 51.5156C31.8799 47.8589 24.7894 42.4023 19.1599 34.9056C16.2188 30.99 13.9797 26.9291 12.4489 22.7166C11.5571 20.2599 11.5129 19.1925 12.2465 17.9357C12.5629 17.4052 13.9101 16.0916 14.8905 15.359C16.5224 14.1464 17.2751 13.6979 17.876 13.5717C18.2871 13.4832 19.0018 13.5527 19.4573 13.7169ZM34.3529 17.6136C38.1924 18.1756 41.1651 19.9567 43.1133 22.8492C44.2076 24.4786 44.8907 26.3922 45.1247 28.4448C45.2069 29.1964 45.2069 30.5669 45.1184 30.7942C45.0361 31.0089 44.7705 31.2995 44.5427 31.4194C44.2961 31.5457 43.7712 31.5332 43.4802 31.3815C42.9931 31.1353 42.8477 30.7437 42.8477 29.6827C42.8477 28.047 42.4238 26.3228 41.6902 24.9838C40.8553 23.4555 39.6408 22.1924 38.1608 21.3145C36.8894 20.5567 35.0108 19.9946 33.2967 19.8557C32.6768 19.8051 32.3352 19.6788 32.1012 19.4072C31.7407 18.9967 31.7027 18.4409 32.0063 17.9799C32.3352 17.4684 32.8412 17.3862 34.3529 17.6136ZM35.7002 22.3818C36.9462 22.6471 37.9014 23.1208 38.7173 23.885C39.7673 24.8765 40.3429 26.0765 40.5959 27.8006C40.7666 28.9248 40.6971 29.3669 40.2986 29.7332C39.9254 30.0742 39.236 30.0868 38.8185 29.7647C38.5149 29.5373 38.42 29.2974 38.3504 28.6469C38.2683 27.7817 38.1165 27.1754 37.8572 26.6133C37.3005 25.4196 36.3201 24.8007 34.6629 24.5986C33.8848 24.5039 33.6509 24.4155 33.3979 24.1187C32.9361 23.5692 33.1132 22.6787 33.752 22.3503C33.9925 22.2303 34.0937 22.2177 34.6249 22.2492C34.9539 22.2682 35.4409 22.325 35.7002 22.3818Z" fill="#DC5F12"/>
</g>
<defs>
<clipPath id="clip0_2355_2079">
<rect width="64" height="64" fill="white"/>
</clipPath>
</defs>
</svg>
