<svg width="139" height="37" viewBox="0 0 139 37" fill="none" xmlns="http://www.w3.org/2000/svg">
<g clip-path="url(#clip0_2284_373)">
<path d="M16.9812 14.7858L33.4554 5.51073C33.7688 5.33438 33.9625 5.00289 33.9625 4.64349V0.349707C33.9625 0.0840664 33.6759 -0.0844705 33.4431 0.0450015L17.5264 8.85245C17.1872 9.03996 16.7753 9.03996 16.4361 8.85245L0.519434 0.0450015C0.286584 -0.0844705 0 0.0840664 0 0.349707V4.64349C0 5.00289 0.193668 5.33327 0.50712 5.51073L16.9812 14.7858Z" fill="#DC5F12"/>
<path d="M17.5345 36.8548L33.4533 27.8922C33.7679 27.7147 33.9627 27.3821 33.9605 27.0216L33.9437 22.7791C33.9526 22.4968 33.6481 22.3115 33.4007 22.4488L17.5278 31.2328C17.1886 31.4203 16.7766 31.4203 16.4374 31.2328L0.563301 22.4488C0.314779 22.3115 0.011402 22.4956 0.0203578 22.7791L0.00244623 27.0205C0.00132676 27.381 0.194995 27.7147 0.509566 27.8911L16.4284 36.8537C16.771 37.0467 17.1908 37.0467 17.5334 36.8537L17.5345 36.8548Z" fill="#DC5F12"/>
<path d="M33.3358 7.49717L18.4155 15.7532L23.3602 18.586L33.3717 12.9495C33.6851 12.7732 33.8788 12.4417 33.8788 12.0823V7.81527C33.8788 7.53735 33.5788 7.361 33.3358 7.49605V7.49717Z" fill="#DC5F12"/>
<path d="M23.5033 20.4075L21.8487 19.4767L14.2173 15.184L11.9615 13.915L7.78368 11.5655L0.542943 7.48824C0.298899 7.35319 0 7.52954 0 7.80745V12.0745C0 12.4338 0.193668 12.7653 0.50712 12.9417L11.6537 19.2177L22.1375 25.1467C23.0163 25.6434 24.0921 25.6445 24.9709 25.1489L33.9625 20.0861V15.2387C33.9625 14.9608 33.6625 14.7844 33.4196 14.9195L23.5033 20.4075Z" fill="#DC5F12"/>
<path d="M9.7282 20.0023L0.542943 14.9194C0.298899 14.7843 0 14.9607 0 15.2386V19.5056C0 19.865 0.193668 20.1965 0.50712 20.3728L9.73044 25.5662C10.0338 25.737 10.4088 25.5182 10.4088 25.1711V21.1564C10.4088 20.6776 10.148 20.2356 9.7282 20.0034V20.0023Z" fill="#DC5F12"/>
<path d="M23.5034 20.4078L27.594 22.6847C28.016 22.9381 28.7806 22.966 29.2094 22.7249L33.9917 20.0953V15.2434C33.9917 14.9666 33.582 14.7925 33.3402 14.9264L23.5045 20.4067L23.5034 20.4078Z" fill="url(#paint0_linear_2284_373)"/>
<path d="M45.8335 17.0895C45.3969 17.0895 45.1204 16.7993 45.0331 16.5816L43.0684 11.7934H42.9229V16.5816C42.9229 16.8718 42.7046 17.0895 42.4135 17.0895H40.2305C39.9395 17.0895 39.7212 16.8718 39.7212 16.5816V7.44046C39.7212 7.15026 39.9395 6.93262 40.2305 6.93262H43.2867C43.7233 6.93262 43.9998 7.22281 44.0871 7.44046L46.6339 13.6071H46.7795L49.3262 7.44046C49.4136 7.22281 49.6901 6.93262 50.1267 6.93262H53.1828C53.4739 6.93262 53.6922 7.15026 53.6922 7.44046V16.5816C53.6922 16.8718 53.4739 17.0895 53.1828 17.0895H50.9999C50.7088 17.0895 50.4905 16.8718 50.4905 16.5816V11.7934H50.345L48.3948 16.5816C48.3075 16.7993 48.031 17.0895 47.5944 17.0895H45.8335Z" fill="white"/>
<path d="M65.7711 8.89144C65.7711 9.18164 65.5528 9.39928 65.2618 9.39928H59.0767V10.7052H63.6609C63.952 10.7052 64.1703 10.9228 64.1703 11.213V12.664C64.1703 12.9542 63.952 13.1718 63.6609 13.1718H59.0767V14.6228H65.2618C65.5528 14.6228 65.7711 14.8405 65.7711 15.1307V16.5816C65.7711 16.8718 65.5528 17.0895 65.2618 17.0895H56.3844C56.0933 17.0895 55.875 16.8718 55.875 16.5816V7.44046C55.875 7.15026 56.0933 6.93262 56.3844 6.93262H65.2618C65.5528 6.93262 65.7711 7.15026 65.7711 7.44046V8.89144Z" fill="white"/>
<path d="M76.5405 8.89144C76.5405 9.18164 76.3222 9.39928 76.0312 9.39928H70.5738V16.5816C70.5738 16.8718 70.3555 17.0895 70.0644 17.0895H67.8814C67.5904 17.0895 67.3721 16.8718 67.3721 16.5816V7.44046C67.3721 7.15026 67.5904 6.93262 67.8814 6.93262H76.0312C76.3222 6.93262 76.5405 7.15026 76.5405 7.44046V8.89144Z" fill="white"/>
<path d="M84.0062 15.2758H79.422L78.9126 16.5816C78.7962 16.8718 78.5488 17.0895 78.2578 17.0895H75.9293C75.6382 17.0895 75.4345 16.8718 75.5654 16.5816L79.6403 7.44046C79.7713 7.15026 80.0041 6.93262 80.2952 6.93262H83.2786C83.5696 6.93262 83.8025 7.13575 83.9335 7.42595L88.0083 16.5816C88.1393 16.8718 87.9356 17.0895 87.6445 17.0895H85.1705C84.8794 17.0895 84.632 16.8718 84.5156 16.5816L84.0062 15.2758ZM80.4407 12.8816H82.9875L81.8233 9.97968H81.6777L80.4407 12.8816Z" fill="white"/>
<path d="M95.9108 12.9539C95.9108 13.2441 95.6925 13.4617 95.4015 13.4617H89.1436C88.8526 13.4617 88.6343 13.2441 88.6343 12.9539V11.648C88.6343 11.3578 88.8526 11.1401 89.1436 11.1401H95.4015C95.6925 11.1401 95.9108 11.3578 95.9108 11.648V12.9539Z" fill="white"/>
<path d="M113.01 14.6228H113.956C114.247 14.6228 114.466 14.8405 114.466 15.1307V16.5816C114.466 16.8718 114.247 17.0895 113.956 17.0895H98.0924C97.8013 17.0895 97.583 16.8718 97.583 16.5816V7.44046C97.583 7.15026 97.8013 6.93262 98.0924 6.93262H100.275C100.566 6.93262 100.785 7.15026 100.785 7.44046V14.6228H103.695V7.44046C103.695 7.15026 103.914 6.93262 104.205 6.93262H106.388C106.679 6.93262 106.897 7.15026 106.897 7.44046V14.6228H109.808V7.44046C109.808 7.15026 110.026 6.93262 110.317 6.93262H112.5C112.791 6.93262 113.009 7.15026 113.009 7.44046V14.6228H113.01Z" fill="white"/>
<path d="M123.197 11.2856L119.559 16.5816C119.414 16.7993 119.123 17.0895 118.759 17.0895H116.285C115.994 17.0895 115.775 16.8718 115.775 16.5816V7.44046C115.775 7.15026 115.994 6.93262 116.285 6.93262H118.468C118.759 6.93262 118.977 7.15026 118.977 7.44046V12.7365H119.123L122.761 7.44046C122.906 7.22281 123.197 6.93262 123.561 6.93262H126.035C126.326 6.93262 126.545 7.15026 126.545 7.44046V16.5816C126.545 16.8718 126.326 17.0895 126.035 17.0895H123.852C123.561 17.0895 123.343 16.8718 123.343 16.5816V11.2856H123.197Z" fill="white"/>
<path d="M138.187 8.89144C138.187 9.18164 137.969 9.39928 137.678 9.39928H134.622V16.5816C134.622 16.8718 134.403 17.0895 134.112 17.0895H131.929C131.638 17.0895 131.42 16.8718 131.42 16.5816V9.39928H128.364C128.073 9.39928 127.854 9.18164 127.854 8.89144V7.44046C127.854 7.15026 128.073 6.93262 128.364 6.93262H137.678C137.969 6.93262 138.187 7.15026 138.187 7.44046V8.89144Z" fill="white"/>
<path d="M47.2795 24.459V27.1908H46.9385V25.9542H46.1145C45.9927 25.9542 45.8952 25.9521 45.8222 25.9468C45.7491 25.9416 45.6591 25.9236 45.55 25.8909C45.4419 25.8592 45.3572 25.8127 45.2958 25.7515C45.1666 25.6301 45.103 25.4505 45.103 25.214V24.459H45.4483V25.1834C45.4483 25.3291 45.4907 25.4389 45.5754 25.5128C45.6707 25.5973 45.8465 25.6396 46.1039 25.6396H46.9374V24.459H47.2785H47.2795Z" fill="white"/>
<path d="M47.7476 27.1908L49.0895 24.459H49.3744L50.7322 27.1908H50.3615L49.9908 26.4558H48.4762L48.1151 27.1908H47.7486H47.7476ZM48.6319 26.1369H49.8372L49.2324 24.9257L48.633 26.1369H48.6319Z" fill="white"/>
<path d="M53.3852 26.3197L53.6596 26.5225C53.5303 26.7622 53.3577 26.9459 53.1406 27.0726C52.9235 27.1994 52.6767 27.2627 52.3981 27.2627C51.9883 27.2627 51.6493 27.1286 51.3814 26.8593C51.1134 26.5911 50.98 26.249 50.98 25.8329C50.98 25.4169 51.1134 25.0747 51.3814 24.8044C51.6493 24.5341 51.9883 24.3989 52.3981 24.3989C52.6523 24.3989 52.8832 24.4549 53.0919 24.5658C53.3005 24.6766 53.4689 24.834 53.5981 25.0367L53.3132 25.2395C53.2253 25.0737 53.1003 24.9459 52.9394 24.854C52.7784 24.7632 52.5983 24.7168 52.3981 24.7168C52.0931 24.7168 51.8389 24.8213 51.6356 25.0314C51.4322 25.2405 51.3305 25.5077 51.3305 25.8319C51.3305 26.1561 51.4322 26.4222 51.6356 26.6302C51.8389 26.8382 52.0931 26.9417 52.3981 26.9417C52.8356 26.9417 53.1639 26.7337 53.3842 26.3187L53.3852 26.3197Z" fill="white"/>
<path d="M54.9249 27.1909V24.7727H53.7705V24.458H56.4194V24.7727H55.2649V27.1909H54.9239H54.9249Z" fill="white"/>
<path d="M56.6191 27.1908V24.459H56.9644V25.5382H58.5806V24.459H58.9217V27.1908H58.5806V25.8529H56.9644V27.1908H56.6191Z" fill="white"/>
<path d="M59.3892 27.1908L60.7311 24.459H61.016L62.3738 27.1908H62.0031L61.6324 26.4558H60.1178L59.7567 27.1908H59.3902H59.3892ZM60.2735 26.1369H61.4788L60.874 24.9257L60.2746 26.1369H60.2735Z" fill="white"/>
<path d="M65.0419 27.1908H64.7008V26.0197H63.7752L62.9766 27.1908H62.6006L63.4034 25.9944C63.1556 25.9711 62.9713 25.8983 62.8495 25.7768C62.7107 25.6385 62.6408 25.459 62.6408 25.2393C62.6408 25.0028 62.7139 24.8148 62.859 24.6765C63.0052 24.5308 63.2265 24.459 63.5252 24.459H65.0397V27.1908H65.0419ZM64.7019 25.7008V24.7737H63.5125C63.3568 24.7737 63.2382 24.8043 63.1566 24.8645C63.0518 24.9458 62.9988 25.0725 62.9988 25.2446C62.9988 25.3967 63.0465 25.5097 63.1407 25.5846C63.2392 25.6628 63.3674 25.7008 63.5273 25.7008H64.7019Z" fill="white"/>
<path d="M69.813 26.8593C69.544 27.1275 69.204 27.2627 68.7941 27.2627C68.3843 27.2627 68.0453 27.1286 67.7774 26.8593C67.5094 26.5911 67.376 26.249 67.376 25.8329C67.376 25.4169 67.5094 25.0747 67.7774 24.8044C68.0453 24.5341 68.3843 24.3989 68.7941 24.3989C69.204 24.3989 69.544 24.5341 69.813 24.8044C70.082 25.0747 70.2176 25.4179 70.2176 25.8329C70.2176 26.2479 70.0831 26.5911 69.813 26.8593ZM68.0316 26.6312C68.2349 26.8393 68.4891 26.9428 68.7941 26.9428C69.0992 26.9428 69.3534 26.8382 69.5567 26.6281C69.7601 26.419 69.8617 26.1529 69.8617 25.8319C69.8617 25.5109 69.7601 25.2405 69.5567 25.0314C69.3534 24.8224 69.0992 24.7168 68.7941 24.7168C68.4891 24.7168 68.2349 24.8213 68.0316 25.0314C67.8282 25.2405 67.7265 25.5077 67.7265 25.8319C67.7265 26.1561 67.8282 26.4222 68.0316 26.6302V26.6312Z" fill="white"/>
<path d="M70.5273 27.1908L71.6458 25.817L70.5422 24.459H70.9595L71.8597 25.554L72.7547 24.459H73.1667L72.0631 25.8022L73.1963 27.1908H72.7589L71.8491 26.0651L70.9287 27.1908H70.5273Z" fill="white"/>
<path d="M73.6948 27.1908V24.459H75.2655C75.5366 24.459 75.7474 24.5245 75.8989 24.6543C76.0492 24.7842 76.1255 24.9658 76.1255 25.1992C76.1255 25.4326 76.0524 25.6237 75.9073 25.7716C75.7612 25.9204 75.5631 25.9944 75.3121 25.9944H74.0359V27.1908H73.6948ZM74.0348 25.6755H75.2443C75.5938 25.6755 75.7675 25.5266 75.7675 25.2298C75.7675 25.0883 75.723 24.9764 75.6351 24.8951C75.5472 24.8138 75.4212 24.7737 75.2591 24.7737H74.0337V25.6755H74.0348Z" fill="white"/>
<path d="M76.1704 27.1908L77.5123 24.459H77.7972L79.155 27.1908H78.7843L78.4136 26.4558H76.8991L76.5379 27.1908H76.1715H76.1704ZM77.0558 26.1369H78.2611L77.6564 24.9257L77.0569 26.1369H77.0558Z" fill="white"/>
<path d="M79.6226 27.1908V24.459H79.9678V25.5382H81.5841V24.459H81.9251V27.1908H81.5841V25.8529H79.9678V27.1908H79.6226Z" fill="white"/>
<path d="M82.8042 27.1908V24.459H83.1495V25.5382H84.7657V24.459H85.1067V27.1908H84.7657V25.8529H83.1495V27.1908H82.8042Z" fill="white"/>
<path d="M85.5757 27.1908L86.9176 24.459H87.2025L88.5603 27.1908H88.1896L87.8189 26.4558H86.3044L85.9432 27.1908H85.5767H85.5757ZM86.46 26.1369H87.6653L87.0606 24.9257L86.4611 26.1369H86.46Z" fill="white"/>
<path d="M91.2289 27.1908H90.8878V26.0197H89.9622L89.1636 27.1908H88.7876L89.5904 25.9944C89.3426 25.9711 89.1583 25.8983 89.0365 25.7768C88.8978 25.6385 88.8278 25.459 88.8278 25.2393C88.8278 25.0028 88.9009 24.8148 89.046 24.6765C89.1922 24.5308 89.4135 24.459 89.7122 24.459H91.2268V27.1908H91.2289ZM90.8878 25.7008V24.7737H89.6984C89.5428 24.7737 89.4241 24.8043 89.3426 24.8645C89.2377 24.9458 89.1848 25.0725 89.1848 25.2446C89.1848 25.3967 89.2324 25.5097 89.3267 25.5846C89.4252 25.6628 89.5533 25.7008 89.7133 25.7008H90.8878Z" fill="white"/>
<path d="M95.9995 26.8593C95.7305 27.1275 95.3905 27.2627 94.9807 27.2627C94.5708 27.2627 94.2319 27.1286 93.9639 26.8593C93.6959 26.5911 93.5625 26.249 93.5625 25.8329C93.5625 25.4169 93.6959 25.0747 93.9639 24.8044C94.2319 24.5341 94.5708 24.3989 94.9807 24.3989C95.3905 24.3989 95.7305 24.5341 95.9995 24.8044C96.2686 25.0747 96.4041 25.4179 96.4041 25.8329C96.4041 26.2479 96.2696 26.5911 95.9995 26.8593ZM94.2181 26.6312C94.4214 26.8393 94.6756 26.9428 94.9807 26.9428C95.2857 26.9428 95.5399 26.8382 95.7432 26.6281C95.9466 26.419 96.0483 26.1529 96.0483 25.8319C96.0483 25.5109 95.9466 25.2405 95.7432 25.0314C95.5399 24.8224 95.2857 24.7168 94.9807 24.7168C94.6756 24.7168 94.4214 24.8213 94.2181 25.0314C94.0147 25.2405 93.9131 25.5077 93.9131 25.8319C93.9131 26.1561 94.0147 26.4222 94.2181 26.6302V26.6312Z" fill="white"/>
<path d="M97.0391 27.1908V24.459H98.6097C98.8809 24.459 99.0916 24.5245 99.2431 24.6543C99.3935 24.7842 99.4697 24.9658 99.4697 25.1992C99.4697 25.4326 99.3967 25.6237 99.2516 25.7716C99.1054 25.9204 98.9074 25.9944 98.6563 25.9944H97.3801V27.1908H97.0391ZM97.3801 25.6755H98.5896C98.9391 25.6755 99.1128 25.5266 99.1128 25.2298C99.1128 25.0883 99.0683 24.9764 98.9804 24.8951C98.8925 24.8138 98.7665 24.7737 98.6044 24.7737H97.379V25.6755H97.3801Z" fill="white"/>
<path d="M100.084 27.1908V24.459H102.158V24.7737H100.424V27.1918H100.083L100.084 27.1908Z" fill="white"/>
<path d="M101.778 27.1908L103.12 24.459H103.405L104.762 27.1908H104.392L104.021 26.4558H102.507L102.145 27.1908H101.779H101.778ZM102.662 26.1369H103.867L103.263 24.9257L102.663 26.1369H102.662Z" fill="white"/>
<path d="M105.229 27.1908V24.459H105.574V25.5382H107.19V24.459H107.532V27.1908H107.19V25.8529H105.574V27.1908H105.229Z" fill="white"/>
<path d="M110.72 27.1908H110.379V25.0725L108.636 27.1908H108.412V24.459H108.753V26.5773L110.492 24.459H110.721V27.1908H110.72Z" fill="white"/>
<path d="M111.666 25.0726L111.473 24.8044C111.67 24.683 111.842 24.5953 111.992 24.5404C112.246 24.4454 112.495 24.3989 112.74 24.3989C113.075 24.3989 113.341 24.4612 113.538 24.5869C113.769 24.7326 113.883 24.9385 113.883 25.2057C113.883 25.456 113.763 25.6302 113.522 25.7273C113.647 25.7844 113.751 25.8593 113.833 25.9501C113.924 26.0652 113.97 26.2015 113.97 26.3609C113.97 26.6682 113.845 26.8995 113.594 27.0557C113.385 27.1941 113.08 27.2638 112.679 27.2638C112.394 27.2638 112.143 27.2236 111.927 27.1423C111.718 27.0684 111.527 26.9586 111.357 26.8129L111.566 26.5341C111.698 26.646 111.865 26.7421 112.064 26.8234C112.274 26.9079 112.498 26.9501 112.735 26.9501C112.973 26.9501 113.173 26.91 113.325 26.8287C113.515 26.7273 113.61 26.5774 113.61 26.3778C113.61 26.2258 113.539 26.1107 113.396 26.0336C113.261 25.9491 113.003 25.9068 112.623 25.9068H112.12V25.5827H112.639C112.981 25.5827 113.207 25.5573 113.315 25.5066C113.461 25.4359 113.533 25.3271 113.533 25.1825C113.533 25.0241 113.445 24.9037 113.268 24.8224C113.136 24.7548 112.961 24.721 112.745 24.721C112.542 24.721 112.343 24.7548 112.15 24.8224C111.98 24.8868 111.819 24.9713 111.667 25.0758L111.666 25.0726Z" fill="white"/>
<path d="M114.293 27.1908L115.635 24.459H115.92L117.278 27.1908H116.907L116.536 26.4558H115.022L114.66 27.1908H114.294H114.293ZM115.177 26.1369H116.383L115.778 24.9257L115.178 26.1369H115.177Z" fill="white"/>
<path d="M117.745 24.459H118.09V26.8772H119.499V24.459H119.84V26.8772H120.252V27.8001H119.947V27.1918H117.746V24.46L117.745 24.459Z" fill="white"/>
<path d="M123.053 27.1908H122.712V25.0725L120.969 27.1908H120.746V24.459H121.087V26.5773L122.826 24.459H123.054V27.1908H123.053Z" fill="white"/>
<path d="M126.123 27.1908H125.782V26.0197H124.857L124.058 27.1908H123.682L124.485 25.9944C124.237 25.9711 124.053 25.8983 123.931 25.7768C123.792 25.6385 123.722 25.459 123.722 25.2393C123.722 25.0028 123.795 24.8148 123.941 24.6765C124.087 24.5308 124.308 24.459 124.607 24.459H126.121V27.1908H126.123ZM125.782 25.7008V24.7737H124.593C124.437 24.7737 124.319 24.8043 124.237 24.8645C124.132 24.9458 124.079 25.0725 124.079 25.2446C124.079 25.3967 124.127 25.5097 124.221 25.5846C124.32 25.6628 124.448 25.7008 124.608 25.7008H125.782Z" fill="white"/>
</g>
<defs>
<linearGradient id="paint0_linear_2284_373" x1="24.905" y1="22.2862" x2="34.8055" y2="16.875" gradientUnits="userSpaceOnUse">
<stop stop-color="#843A12"/>
<stop offset="0.05" stop-color="#903F12"/>
<stop offset="0.19" stop-color="#AB4A12"/>
<stop offset="0.34" stop-color="#C15312"/>
<stop offset="0.51" stop-color="#D05A12"/>
<stop offset="0.71" stop-color="#D95D12"/>
<stop offset="1" stop-color="#DC5F12"/>
</linearGradient>
<clipPath id="clip0_2284_373">
<rect width="138.187" height="37" fill="white"/>
</clipPath>
</defs>
</svg>
