<svg width="64" height="64" viewBox="0 0 64 64" fill="none" xmlns="http://www.w3.org/2000/svg">
<path fill-rule="evenodd" clip-rule="evenodd" d="M32 64C49.6731 64 64 49.6731 64 32C64 14.3269 49.6731 0 32 0C14.3269 0 0 14.3269 0 32C0 49.6731 14.3269 64 32 64ZM51.8906 40.6641C52.8097 41.2768 54.0514 41.0285 54.6641 40.1094C55.2768 39.1903 55.0285 37.9486 54.1094 37.3359L33.1094 23.3359L32 22.5963L30.8906 23.3359L9.8906 37.3359C8.97154 37.9486 8.72319 39.1903 9.3359 40.1094C9.9486 41.0285 11.1903 41.2768 12.1094 40.6641L32 27.4037L51.8906 40.6641Z" fill="#DC5F12"/>
</svg>
