<svg width="65" height="64" viewBox="0 0 65 64" fill="none" xmlns="http://www.w3.org/2000/svg">
<g clip-path="url(#clip0_2355_2083)">
<path fill-rule="evenodd" clip-rule="evenodd" d="M32.4907 0C14.8497 0 0.5 14.3537 0.5 31.9997C0.5 38.9979 2.75686 45.488 6.59334 50.7559L2.60612 62.6451L14.9059 58.7141C19.9648 62.0627 26.0019 64 32.5093 64C50.1503 64 64.5 49.6458 64.5 32.0003C64.5 14.3543 50.1503 0.000528971 32.5093 0.000528971L32.4907 0ZM23.5571 16.2544C22.9366 14.7684 22.4664 14.7121 21.5264 14.6739C21.2063 14.6553 20.8496 14.6367 20.4542 14.6367C19.2313 14.6367 17.9526 14.994 17.1814 15.7841C16.2414 16.7435 13.9091 18.9818 13.9091 23.5723C13.9091 28.1627 17.2568 32.6023 17.7079 33.2235C18.1782 33.8436 24.2344 43.4004 33.6377 47.2953C40.9911 50.3429 43.1732 50.0604 44.8468 49.7031C47.2915 49.1764 50.3574 47.3697 51.1286 45.1881C51.8998 43.0054 51.8998 41.1429 51.6737 40.7479C51.4481 40.3529 50.8271 40.1278 49.887 39.6568C48.947 39.1864 44.3765 36.9289 43.5113 36.6278C42.6647 36.3082 41.8563 36.4213 41.2173 37.3244C40.3144 38.5849 39.4307 39.8644 38.7157 40.6353C38.1515 41.2374 37.2295 41.3128 36.4588 40.9926C35.4243 40.5605 32.5284 39.5437 28.9547 36.3645C26.1898 33.9005 24.3093 30.8343 23.7642 29.9126C23.2185 28.9724 23.7078 28.426 24.1399 27.9185C24.6102 27.335 25.0614 26.9214 25.5317 26.3756C26.0019 25.8303 26.2652 25.5479 26.5662 24.9081C26.8862 24.2874 26.6601 23.6477 26.4345 23.1772C26.2089 22.7068 24.3284 18.1164 23.5571 16.2544Z" fill="#DC5F12"/>
</g>
<defs>
<clipPath id="clip0_2355_2083">
<rect width="64" height="64" fill="white" transform="translate(0.5)"/>
</clipPath>
</defs>
</svg>
